<?xml version="1.0" encoding="utf-8"?>
<!-- Generator: Adobe Illustrator 18.0.0, SVG Export Plug-In . SVG Version: 6.00 Build 0)  -->
<!DOCTYPE svg PUBLIC "-//W3C//DTD SVG 1.1//EN" "http://www.w3.org/Graphics/SVG/1.1/DTD/svg11.dtd">
<svg version="1.1" id="Слой_1" xmlns="http://www.w3.org/2000/svg" xmlns:xlink="http://www.w3.org/1999/xlink" x="0px" y="0px"
	 viewBox="0 0 30 30" enable-background="new 0 0 30 30" xml:space="preserve">
<g>
	<g>
		<path fill="#F2EDAA" d="M738.9,379.5c0-153.8-125.1-278.9-278.9-278.9S181.1,225.7,181.1,379.5c0,5,0,10.1,0.7,14.4
			C189.8,550.6,317,736.7,442,814.3c5.8,3.6,12.2,5,18.7,5l0,0c6.5,0,12.2-1.4,18-5C603.8,737.4,731,550.6,738.9,393.9
			C738.9,388.8,738.9,384.5,738.9,379.5z"/>
	</g>
	<g opacity="0.2">
		<path fill="#62345B" d="M460,100.6c-7.9,0-16.5,0.7-24.4,1.4C577.9,114.3,690,233.6,690,379.5c0,5,0,9.3-0.7,14.4
			C682.1,547.7,558.5,731,435.6,810c2.2,1.4,4.3,2.9,6.5,4.3c5.8,3.6,12.2,5,18.7,5c6.5,0,12.2-1.4,18-5
			C603.8,737.4,731,550.6,738.9,393.9c0-5,0.7-9.3,0.7-14.4C738.9,225.7,613.8,100.6,460,100.6z"/>
	</g>
	<g>
		<path fill="#62345B" d="M460,828c-7.9,0-16.5-2.2-23-6.5c-120.8-74-256.6-258.7-264.5-426.9c0-5-0.7-10.1-0.7-15.1
			C171.8,220.7,301.2,92,459.3,92s287.5,129.4,287.5,287.5c0,5,0,10.1-0.7,15.1c-7.9,168.2-143.8,352.9-264.5,427.7
			C476.5,825.8,468.6,828,460,828C460.7,828,460,828,460,828z M460,109.3c-148.8,0-269.5,120.8-269.5,269.5c0,5,0,9.3,0.7,14.4
			c7.9,157.4,138.7,340.7,255.9,413.3c3.6,2.2,8.6,3.6,13.7,3.6v8.6v-9.3c5,0,9.3-1.4,12.9-3.6c117.2-72.6,248-255.9,255.9-413.3
			c0-5,0.7-9.3,0.7-14.4C729.5,230.7,608.8,109.3,460,109.3z"/>
	</g>
	<g>
		<circle fill="#92D3CB" cx="460" cy="379.5" r="219.9"/>
	</g>
	<g>
		<path fill="#62345B" d="M460,608.8c-126.5,0-229.3-102.8-229.3-229.3S333.5,150.2,460,150.2S689.3,253,689.3,379.5
			S586.5,608.8,460,608.8z M460,168.2c-116.4,0-211.3,94.9-211.3,211.3S343.6,590.8,460,590.8s211.3-94.9,211.3-211.3
			S576.4,168.2,460,168.2z"/>
	</g>
	<g>
		<path fill="#F5F1E3" d="M513.9,503.1H413.3c-20.1,0-35.9-15.8-35.9-35.9V301.9c0-7.9,6.5-14.4,14.4-14.4h136.6
			c7.9,0,14.4,6.5,14.4,14.4v165.3C542.7,487.3,534,503.1,513.9,503.1z"/>
	</g>
	<g>
		<path fill="#F5F1E3" d="M513.9,503.1H413.3c-20.1,0-35.9-15.8-35.9-35.9V301.9c0-7.9,6.5-14.4,14.4-14.4h136.6
			c7.9,0,14.4,6.5,14.4,14.4v165.3C542.7,487.3,534,503.1,513.9,503.1z"/>
	</g>
	<g>
		<path fill="#ED9E77" d="M513.9,503.1H413.3c-20.1,0-35.9-15.8-35.9-35.9V337.8h165.3v129.4C542.7,487.3,534,503.1,513.9,503.1z"/>
	</g>
	<g>
		<path fill="#62345B" d="M542.7,346.4H377.3c-5,0-8.6-4.3-8.6-8.6s4.3-8.6,8.6-8.6h165.3c5,0,8.6,4.3,8.6,8.6
			S547.7,346.4,542.7,346.4z"/>
	</g>
	<g>
		<path fill="#62345B" d="M513.9,511.7H413.3c-24.4,0-44.6-20.1-44.6-44.6V301.9c0-12.9,10.8-23,23-23h136.6c12.9,0,23,10.8,23,23
			v165.3C552,494.5,536.9,511.7,513.9,511.7z M391.7,296.1c-2.9,0-5.8,2.2-5.8,5.8v165.3c0,15.1,12.2,27.3,27.3,27.3h100.6
			c17.3,0,20.1-16.5,20.1-27.3V301.9c0-2.9-2.2-5.8-5.8-5.8H391.7z"/>
	</g>
	<g>
		<path fill="#62345B" d="M420.5,483c-5,0-8.6-4.3-8.6-8.6v-93.4c0-5,4.3-8.6,8.6-8.6s8.6,4.3,8.6,8.6v93.4
			C429.8,479.4,425.5,483,420.5,483z"/>
	</g>
	<g>
		<path fill="#62345B" d="M460,483c-5,0-8.6-4.3-8.6-8.6v-93.4c0-5,4.3-8.6,8.6-8.6s8.6,4.3,8.6,8.6v93.4
			C469.3,479.4,465,483,460,483z"/>
	</g>
	<g>
		<path fill="#62345B" d="M499.5,483c-5,0-8.6-4.3-8.6-8.6v-93.4c0-5,4.3-8.6,8.6-8.6s8.6,4.3,8.6,8.6v93.4
			C508.9,479.4,504.6,483,499.5,483z"/>
	</g>
	<g>
		<path fill="#F5F1E3" d="M528.3,287.5c-32.3-10.8-45.3-14.4-68.3-24.4c-46-20.1-68.3-3.6-68.3,24.4h66.1c7.9,0,14.4,6.5,14.4,14.4
			v43.8c0,7.9,6.5,13.7,13.7,13.7l0,0c7.9,0,13.7-6.5,13.7-13.7v-43.8c0-7.9,6.5-14.4,14.4-14.4H528.3z"/>
	</g>
	<g>
		<path fill="#62345B" d="M486.6,368c-12.2,0-23-10.1-23-23v-43.1c0-2.9-2.2-5.8-5.8-5.8h-66.1c-5,0-8.6-4.3-8.6-8.6
			c0-25.9,15.8-41.7,41.7-41.7c11.5,0,24.4,2.9,39.5,9.3c17.3,7.2,29.5,11.5,48.9,18c5.8,2.2,11.5,3.6,18.7,6.5
			c4.3,1.4,6.5,5.8,5.8,10.1c-0.7,4.3-4.3,7.2-8.6,7.2h-13.7c-2.9,0-5.8,2.2-5.8,5.8v43.8C508.9,357.9,498.8,368,486.6,368z
			 M401.8,278.9h56.1c12.9,0,23,10.8,23,23v43.8c0,2.9,2.2,5,5,5c2.9,0,5-2.2,5-5v-43.8c0-5.8,2.2-11.5,5.8-15.1
			c-14.4-5-25.2-8.6-40.3-15.1c-12.2-5-23-7.9-32.3-7.9C409.7,263.8,403.9,270.3,401.8,278.9z"/>
	</g>
	<g>
		<path fill="#62345B" d="M542.7,468.6c-5,0-8.6-4.3-8.6-8.6V316.3c0-5,4.3-8.6,8.6-8.6c32.3,0,58.9,26.6,58.9,58.9v43.1
			C602.3,442,575,468.6,542.7,468.6z M552,326.3v123.6c18.7-4.3,32.3-20.8,32.3-40.3v-43.1C584.3,347.2,570,330.6,552,326.3z"/>
	</g>
</g>
</svg>
