<?xml version="1.0" encoding="utf-8"?>
<!-- Generator: Adobe Illustrator 18.0.0, SVG Export Plug-In . SVG Version: 6.00 Build 0)  -->
<!DOCTYPE svg PUBLIC "-//W3C//DTD SVG 1.1//EN" "http://www.w3.org/Graphics/SVG/1.1/DTD/svg11.dtd">
<svg version="1.1" id="Слой_1" xmlns="http://www.w3.org/2000/svg" xmlns:xlink="http://www.w3.org/1999/xlink" x="0px" y="0px"
	 viewBox="0 0 920 920" enable-background="new 0 0 920 920" xml:space="preserve">
<g>
	<path fill="#CCCCCC" stroke="#FFFFFF" stroke-width="11" stroke-miterlimit="10" d="M723.5,883.5L263.1,847
		c-37.6-3-60.9-42.6-44.7-76.2l82.1-178.1c9.5-20.6,30.5-33.2,53.3-31.4L678.4,587c22.7,1.8,41.5,17.6,47.6,39.4l53.6,188.9
		C790.4,851.1,761.1,886.5,723.5,883.5z"/>
</g>
<path fill="#7B6B99" d="M744,379.5c0-153.8-125.1-278.9-278.9-278.9S186.3,225.7,186.3,379.5c0,5,0,10.1,0.7,14.4
	c7.9,156.7,135.1,342.8,260.2,420.5c5.7,3.6,12.2,5,18.7,5l0,0c6.5,0,12.2-1.4,18-5C608.9,737.4,736.1,550.6,744,393.9
	C744,388.8,744,384.5,744,379.5z"/>
<g opacity="0.2">
	<path fill="#62345B" d="M465.2,100.6c-7.9,0-16.5,0.7-24.4,1.4C583,114.3,695.2,233.6,695.2,379.5c0,5,0,9.3-0.7,14.4
		C687.3,547.7,563.6,731,440.7,810c2.2,1.4,4.3,2.9,6.5,4.3c5.8,3.6,12.2,5,18.7,5s12.2-1.4,18-5C608.9,737.4,736.1,550.6,744,393.9
		c0-5,0.7-9.3,0.7-14.4C744,225.7,619,100.6,465.2,100.6z"/>
</g>
<g>
	<path fill="#808080" d="M465.2,828c-7.9,0-16.5-2.2-23-6.5c-120.7-74-256.6-258.7-264.5-426.9c0-5-0.7-10.1-0.7-15.1
		C176.9,220.7,306.3,92,464.4,92s287.5,129.4,287.5,287.5c0,5,0,10.1-0.7,15.1c-7.9,168.2-143.8,352.9-264.5,427.7
		C481.7,825.8,473.8,828,465.2,828C465.9,828,465.2,828,465.2,828z M465.2,109.3c-148.8,0-269.5,120.8-269.5,269.5
		c0,5,0,9.3,0.7,14.4c7.9,157.4,138.7,340.7,255.9,413.3c3.6,2.2,8.6,3.6,13.7,3.6v8.6v-9.3c5,0,9.3-1.4,12.9-3.6
		c117.2-72.6,248-255.9,255.9-413.3c0-5,0.7-9.3,0.7-14.4C734.7,230.7,613.9,109.3,465.2,109.3z"/>
</g>
<g>
	<circle fill="#FFFFFF" cx="465.2" cy="379.5" r="219.9"/>
</g>
<g>
	<path fill="#808080" d="M465.2,608.8c-126.5,0-229.3-102.8-229.3-229.3s102.8-229.3,229.3-229.3S694.4,253,694.4,379.5
		S591.7,608.8,465.2,608.8z M465.2,168.2c-116.4,0-211.3,94.9-211.3,211.3s94.9,211.3,211.3,211.3s211.3-94.9,211.3-211.3
		S581.6,168.2,465.2,168.2z"/>
</g>
<rect id="teste" x="1021" y="272" fill="none" width="36" height="36"/>
<path fill="#7B6B99" stroke="#000000" stroke-miterlimit="10" d="M463.8,324c0,0-36.4-41-132.9-41v170.9
	c96.6,0,132.9,42.7,132.9,42.7s37.6-42.7,134.2-42.7V283C501.4,283,463.8,324,463.8,324z M577.4,432.6
	c-40.3,1.1-79.6,13.5-113.6,35.9c-33.6-22.5-72.5-34.9-112.4-35.9V304.4c69.9,5.6,97.2,34.2,97.6,34.4l15,15.8l14.8-16
	c0,0,28.8-28.6,98.6-34.2V432.6z M474.7,437.7l-2.1-3.6c26.7-12.7,55.1-21.2,84.2-25.2v4.3c-28.4,4.2-56.1,12.7-82.2,25.2V437.7z
	 M474.7,416.3l-2.1-3.6c26.7-12.6,55.1-21,84.2-25v4.3c-28.4,4.2-56.1,12.8-82.2,25.4V416.3z M474.7,395l-2.1-3.6
	c26.7-12.6,55.1-21,84.2-25v4.3c-28.4,4.2-56.1,12.8-82.2,25.4V395z M474.7,373.6l-2.1-3.6c26.7-12.6,55.1-21,84.2-25v4.3
	c-28.4,4.2-56.1,12.8-82.2,25.4V373.6z M452.1,437.7c-25.4-12.3-52.4-20.7-80.1-24.8v-4.3c28.5,4.3,56.2,13.1,82.2,26.1L452.1,437.7
	z M452.1,416.3C426.7,404.2,399.7,396,372,392v-4.3c28.5,4.3,56.2,13,82.2,25.9L452.1,416.3z M452.1,395
	c-25.4-12.2-52.4-20.4-80.1-24.4v-4.3c28.5,4.3,56.2,13,82.2,25.9L452.1,395z M452.1,373.6c-25.4-12.2-52.4-20.4-80.1-24.4V345
	c28.5,4.3,56.2,13,82.2,25.9L452.1,373.6z"/>
<animate  fill="remove" restart="always" calcMode="linear" additive="replace" accumulate="none" xmlns:xlink="http://www.w3.org/1999/xlink" repeatCount="indefinite" begin="hover" dur="1s" to="30" xlink:href="#teste" attributeName="click" from="10">
	</animate>
</svg>
